<svg version="1.2" xmlns="http://www.w3.org/2000/svg" viewBox="0 0 98 96" width="98" height="96">
	<title>github-mark-white-svg</title>
	<style>
		.s0 { fill: #1e1e2e } 
	</style>
	<path id="Layer" fill-rule="evenodd" class="s0" d="m48.9 0c-27.1 0-48.9 22-48.9 49.2 0 21.8 14 40.2 33.4 46.7 2.4 0.5 3.3-1.1 3.3-2.4 0-1.1-0.1-5-0.1-9.1-13.5 3-16.4-5.8-16.4-5.8-2.2-5.8-5.4-7.2-5.4-7.2-4.4-3 0.3-3 0.3-3 5 0.3 7.5 5 7.5 5 4.4 7.5 11.5 5.4 14.3 4.1 0.4-3.2 1.7-5.4 3.1-6.6-10.9-1.1-22.3-5.4-22.3-24.3 0-5.4 2-9.8 5-13.2-0.5-1.2-2.2-6.3 0.5-13 0 0 4.1-1.3 13.4 5q1.5-0.4 3-0.7 1.6-0.3 3.1-0.5 1.5-0.2 3.1-0.3 1.5-0.1 3.1-0.1c4.1 0 8.3 0.6 12.2 1.6 9.3-6.3 13.4-5 13.4-5 2.7 6.7 1 11.8 0.5 13 3.1 3.4 5 7.8 5 13.2 0 18.9-11.4 23.1-22.3 24.3 1.8 1.5 3.3 4.5 3.3 9.1 0 6.6-0.1 11.9-0.1 13.5 0 1.3 0.9 2.9 3.3 2.4 19.4-6.5 33.4-24.9 33.4-46.7 0.1-27.2-21.8-49.2-48.7-49.2z"/>
</svg>