<svg fill="none" height="20" viewBox="0 0 20 20" width="20" xmlns="http://www.w3.org/2000/svg"><g fill="#212121"><path d="m5.45269 4.16722c-.27695-.27695-.73545-.30063-1.02636-.01071-1.49853 1.49346-2.42633 3.56041-2.42633 5.84359 0 2.372 1.00138 4.5105 2.60373 6.0152.29271.2748.73888.2457 1.0099-.0253.31604-.316.27759-.8186-.02711-1.1099-1.28601-1.2293-2.08652-2.961-2.08652-4.88 0-1.84651.7411-3.51942 1.94265-4.73836.29021-.2944.31961-.78495.01004-1.09452z"/><path d="m7.21439 5.92879c-.26918-.26918-.71899-.30281-1.00865-.01619-1.05295 1.04192-1.70574 2.48864-1.70574 4.08736 0 1.69154.7307 3.21264 1.89289 4.26444.29171.264.7229.2233.98329-.0371.32815-.3281.26637-.8446-.04116-1.1345-.82227-.7753-1.33502-1.874-1.33502-3.09284 0-1.15065.45694-2.19406 1.1998-2.95953.28629-.295.33277-.79346.01459-1.11164z"/><path d="m12.7856 5.92879c.2692-.26918.719-.30281 1.0087-.01619 1.0529 1.04192 1.7057 2.48864 1.7057 4.08736 0 1.69154-.7307 3.21264-1.8929 4.26444-.2917.264-.7229.2233-.9833-.0371-.3281-.3281-.2664-.8446.0412-1.1345.8223-.7753 1.335-1.874 1.335-3.09284 0-1.15065-.4569-2.19406-1.1998-2.95953-.2863-.295-.3328-.79346-.0146-1.11164z"/><path d="m14.5473 4.16722c.277-.27695.7355-.30063 1.0264-.01071 1.4985 1.49346 2.4263 3.56041 2.4263 5.84359 0 2.372-1.0014 4.5105-2.6037 6.0152-.2927.2748-.7389.2457-1.0099-.0253-.3161-.316-.2776-.8186.0271-1.1099 1.286-1.2293 2.0865-2.961 2.0865-4.88 0-1.84651-.7411-3.51942-1.9427-4.73836-.2902-.2944-.3196-.78495-.01-1.09452z"/><path d="m10 8.5c-.82843 0-1.5.67157-1.5 1.5 0 .8284.67157 1.5 1.5 1.5.8284 0 1.5-.6716 1.5-1.5 0-.82843-.6716-1.5-1.5-1.5z"/></g></svg>